<?xml version="1.0" ?><svg height="1024" preserveAspectRatio="xMidYMid meet" width="1024" xmlns="http://www.w3.org/2000/svg"><g><title/><rect fill="none" height="1026" id="canvas_background" width="1026" x="-1" y="-1"/></g><g><title/><g fill="#000000" id="svg_1" transform="translate(0,1024) scale(0.10000000149011612,-0.10000000149011612) "><path d="m4835,9439c-1435,-96 -2744,-913 -3464,-2163c-516,-893 -697,-1957 -505,-2966c236,-1248 1002,-2327 2098,-2959c893,-516 1957,-697 2966,-505c692,131 1330,420 1880,853c829,652 1388,1573 1584,2611c99,518 99,1082 0,1600c-236,1248 -1002,2327 -2098,2959c-742,428 -1602,627 -2461,570zm-866,-1621c63,-233 117,-429 120,-436c4,-6 54,169 111,390c57,222 107,418 112,436l9,32l171,0l170,0l-7,-27c-3,-16 -94,-316 -201,-668l-194,-641l0,-457l0,-457l-170,0l-170,0l0,463l0,462l-40,157c-40,157 -149,495 -299,926c-45,128 -81,235 -81,238c0,2 80,4 178,4l178,0l113,-422zm1308,-159c76,-26 138,-72 189,-141c91,-124 109,-271 101,-793c-6,-367 -14,-432 -63,-533c-58,-119 -186,-207 -321,-220c-157,-16 -272,18 -368,109c-68,65 -110,146 -131,257c-22,117 -16,950 8,1027c52,170 182,291 341,315c70,11 179,2 244,-21zm843,-664c0,-564 2,-681 14,-710c29,-68 106,-55 192,32l54,55l2,647l3,646l153,3l152,3l0,-841l0,-840l-155,0l-155,0l0,87l0,86l-57,-55c-107,-102 -185,-139 -289,-139c-108,0 -167,42 -201,144c-15,47 -17,123 -21,791c-2,406 -1,745 2,752c4,11 37,14 156,14l150,0l0,-675zm180,-1325c410,-17 716,-40 815,-61c28,-6 88,-29 135,-51c69,-33 100,-56 166,-123c148,-149 194,-296 235,-755c29,-336 27,-1165 -6,-1500c-41,-435 -82,-559 -234,-710c-139,-138 -220,-169 -511,-194c-498,-44 -1096,-60 -1985,-53c-1019,9 -1580,42 -1739,101c-165,63 -305,201 -365,362c-76,201 -112,611 -112,1264c0,546 20,846 72,1117c24,126 46,183 106,275c75,115 180,197 310,245c128,46 643,83 1373,97c297,6 1500,-4 1740,-14z" fill="#bb0000" id="svg_2"/><path d="m5044,7391c-18,-11 -39,-37 -50,-62c-18,-41 -19,-77 -22,-472c-3,-480 1,-527 58,-579c67,-62 156,-41 200,47l25,50l0,455l0,455l-24,48c-13,28 -35,54 -52,62c-39,21 -98,19 -135,-4z" fill="#bb0000" id="svg_3"/><path d="m3070,4945l0,-155l175,0l175,0l0,-955l0,-955l170,0l170,0l0,955l0,955l180,0l180,0l0,155l0,155l-525,0l-525,0l0,-155z" fill="#bb0000" id="svg_4"/><path d="m5290,3990l0,-1110l145,0l145,0l0,75c0,41 3,75 6,75c4,0 37,-29 74,-64c81,-76 149,-106 243,-106c138,1 219,83 246,250c14,87 14,1103 0,1189c-30,187 -143,282 -303,252c-76,-14 -125,-41 -201,-112l-65,-61l0,361l0,361l-145,0l-145,0l0,-1110zm512,277c10,-7 29,-32 41,-57c22,-44 22,-54 25,-472c4,-484 -1,-528 -60,-582c-28,-25 -36,-28 -85,-24c-38,3 -66,13 -96,34l-42,30l-3,506l-2,507l35,28c64,51 134,62 187,30z" fill="#bb0000" id="svg_5"/><path d="m6762,4549c-111,-19 -220,-92 -281,-187c-17,-27 -41,-84 -53,-128c-21,-76 -22,-96 -23,-519c0,-310 4,-455 12,-491c25,-104 54,-164 109,-224c94,-101 187,-140 333,-140c147,0 234,34 317,122c93,98 124,189 124,360l0,108l-149,0l-148,0l-7,-106c-11,-165 -42,-214 -138,-214c-65,0 -103,23 -131,80c-20,41 -22,62 -25,243l-4,197l301,0l301,0l0,221c0,311 -20,417 -100,525c-90,120 -270,183 -438,153zm168,-288c54,-39 65,-75 68,-223l4,-138l-151,0l-151,0l0,105c0,127 14,196 47,235c43,51 128,61 183,21z" fill="#bb0000" id="svg_6"/><path d="m4160,3843c0,-390 5,-731 10,-773c20,-156 82,-214 220,-208c95,4 166,38 260,125c37,35 71,63 74,63c3,0 6,-38 6,-85l0,-85l145,0l145,0l0,830l0,830l-145,0l-145,0l0,-636l0,-635l-52,-56c-29,-30 -65,-61 -80,-69c-29,-15 -86,-18 -105,-6c-31,19 -33,70 -33,733l0,669l-150,0l-150,0l0,-697z" fill="#bb0000" id="svg_7"/></g></g></svg>